<svg xmlns="http://www.w3.org/2000/svg" xmlns:svg="http://www.w3.org/2000/svg" id="svg8" width="1204.058" height="510.573" version="1.1" viewBox="0 0 318.574 135.089"><defs id="defs2"><marker id="marker8858" orient="auto" refX="0" refY="0" style="overflow:visible"><path id="path8616" d="M 8.7185878,4.0337352 -2.2072895,0.01601326 8.7185884,-4.0017078 c -1.7454984,2.3720609 -1.7354408,5.6174519 -6e-7,8.035443 z" transform="scale(-0.6)" style="fill:#aa00d4;fill-opacity:1;fill-rule:evenodd;stroke:#aa00d4;stroke-width:.625;stroke-linejoin:round;stroke-opacity:1"/></marker><marker id="Arrow2Send" orient="auto" refX="0" refY="0" style="overflow:visible"><path id="path8622" d="M 8.7185878,4.0337352 -2.2072895,0.01601326 8.7185884,-4.0017078 c -1.7454984,2.3720609 -1.7354408,5.6174519 -6e-7,8.035443 z" transform="matrix(-0.3,0,0,-0.3,0.69,0)" style="fill:red;fill-opacity:1;fill-rule:evenodd;stroke:red;stroke-width:.625;stroke-linejoin:round;stroke-opacity:1"/></marker><marker id="Arrow1Lend" orient="auto" refX="0" refY="0" style="overflow:visible"><path id="path8592" d="M 0,0 5,-5 -12.5,0 5,5 Z" transform="matrix(-0.8,0,0,-0.8,-10,0)" style="fill:red;fill-opacity:1;fill-rule:evenodd;stroke:red;stroke-width:1pt;stroke-opacity:1"/></marker><marker id="Arrow2Lend" orient="auto" refX="0" refY="0" style="overflow:visible"><path id="path8610" d="M 8.7185878,4.0337352 -2.2072895,0.01601326 8.7185884,-4.0017078 c -1.7454984,2.3720609 -1.7354408,5.6174519 -6e-7,8.035443 z" transform="matrix(-1.1,0,0,-1.1,-1.1,0)" style="fill:red;fill-opacity:1;fill-rule:evenodd;stroke:red;stroke-width:.625;stroke-linejoin:round;stroke-opacity:1"/></marker><marker id="Arrow2Mend" orient="auto" refX="0" refY="0" style="overflow:visible"><path id="path1200" d="M 8.7185878,4.0337352 -2.2072895,0.01601326 8.7185884,-4.0017078 c -1.7454984,2.3720609 -1.7354408,5.6174519 -6e-7,8.035443 z" transform="scale(-0.6)" style="fill:red;fill-opacity:1;fill-rule:evenodd;stroke:red;stroke-width:.625;stroke-linejoin:round;stroke-opacity:1"/></marker><marker id="Arrow2Mend-8" orient="auto" refX="0" refY="0" style="overflow:visible"><path id="path1200-9" d="M 8.7185878,4.0337352 -2.2072895,0.01601326 8.7185884,-4.0017078 c -1.7454984,2.3720609 -1.7354408,5.6174519 -6e-7,8.035443 z" transform="scale(-0.6)" style="fill:red;fill-opacity:1;fill-rule:evenodd;stroke:red;stroke-width:.625;stroke-linejoin:round;stroke-opacity:1"/></marker><marker id="Arrow2Mend-8-3" orient="auto" refX="0" refY="0" style="overflow:visible"><path id="path1200-9-6" d="M 8.7185878,4.0337352 -2.2072895,0.01601326 8.7185884,-4.0017078 c -1.7454984,2.3720609 -1.7354408,5.6174519 -6e-7,8.035443 z" transform="scale(-0.6)" style="fill:red;fill-opacity:1;fill-rule:evenodd;stroke:red;stroke-width:.625;stroke-linejoin:round;stroke-opacity:1"/></marker><marker id="Arrow2Mend-8-3-2" orient="auto" refX="0" refY="0" style="overflow:visible"><path id="path1200-9-6-9" d="M 8.7185878,4.0337352 -2.2072895,0.01601326 8.7185884,-4.0017078 c -1.7454984,2.3720609 -1.7354408,5.6174519 -6e-7,8.035443 z" transform="scale(-0.6)" style="fill:red;fill-opacity:1;fill-rule:evenodd;stroke:red;stroke-width:.625;stroke-linejoin:round;stroke-opacity:1"/></marker><marker id="Arrow2Mend-8-3-2-1" orient="auto" refX="0" refY="0" style="overflow:visible"><path id="path1200-9-6-9-9" d="M 8.7185878,4.0337352 -2.2072895,0.01601326 8.7185884,-4.0017078 c -1.7454984,2.3720609 -1.7354408,5.6174519 -6e-7,8.035443 z" transform="scale(-0.6)" style="fill:red;fill-opacity:1;fill-rule:evenodd;stroke:red;stroke-width:.625;stroke-linejoin:round;stroke-opacity:1"/></marker><marker id="Arrow2Mend-8-3-2-7" orient="auto" refX="0" refY="0" style="overflow:visible"><path id="path1200-9-6-9-8" d="M 8.7185878,4.0337352 -2.2072895,0.01601326 8.7185884,-4.0017078 c -1.7454984,2.3720609 -1.7354408,5.6174519 -6e-7,8.035443 z" transform="scale(-0.6)" style="fill:green;fill-opacity:1;fill-rule:evenodd;stroke:green;stroke-width:.625;stroke-linejoin:round;stroke-opacity:1"/></marker><marker id="Arrow2Mend-8-3-4" orient="auto" refX="0" refY="0" style="overflow:visible"><path id="path1200-9-6-5" d="M 8.7185878,4.0337352 -2.2072895,0.01601326 8.7185884,-4.0017078 c -1.7454984,2.3720609 -1.7354408,5.6174519 -6e-7,8.035443 z" transform="scale(-0.6)" style="fill:green;fill-opacity:1;fill-rule:evenodd;stroke:green;stroke-width:.625;stroke-linejoin:round;stroke-opacity:1"/></marker><marker id="Arrow2Mend-8-0" orient="auto" refX="0" refY="0" style="overflow:visible"><path id="path1200-9-3" d="M 8.7185878,4.0337352 -2.2072895,0.01601326 8.7185884,-4.0017078 c -1.7454984,2.3720609 -1.7354408,5.6174519 -6e-7,8.035443 z" transform="scale(-0.6)" style="fill:green;fill-opacity:1;fill-rule:evenodd;stroke:green;stroke-width:.625;stroke-linejoin:round;stroke-opacity:1"/></marker><marker id="Arrow2Mend-6" orient="auto" refX="0" refY="0" style="overflow:visible"><path id="path1200-1" d="M 8.7185878,4.0337352 -2.2072895,0.01601326 8.7185884,-4.0017078 c -1.7454984,2.3720609 -1.7354408,5.6174519 -6e-7,8.035443 z" transform="scale(-0.6)" style="fill:green;fill-opacity:1;fill-rule:evenodd;stroke:green;stroke-width:.625;stroke-linejoin:round;stroke-opacity:1"/></marker><marker id="Arrow2Mend-8-3-2-6" orient="auto" refX="0" refY="0" style="overflow:visible"><path id="path1200-9-6-9-1" d="M 8.7185878,4.0337352 -2.2072895,0.01601326 8.7185884,-4.0017078 c -1.7454984,2.3720609 -1.7354408,5.6174519 -6e-7,8.035443 z" transform="scale(-0.6)" style="fill:red;fill-opacity:1;fill-rule:evenodd;stroke:red;stroke-width:.625;stroke-linejoin:round;stroke-opacity:1"/></marker><marker id="Arrow2Mend-8-0-7" orient="auto" refX="0" refY="0" style="overflow:visible"><path id="path1200-9-3-4" d="M 8.7185878,4.0337352 -2.2072895,0.01601326 8.7185884,-4.0017078 c -1.7454984,2.3720609 -1.7354408,5.6174519 -6e-7,8.035443 z" transform="scale(-0.6)" style="fill:green;fill-opacity:1;fill-rule:evenodd;stroke:green;stroke-width:.625;stroke-linejoin:round;stroke-opacity:1"/></marker><marker id="Arrow2Mend-6-3" orient="auto" refX="0" refY="0" style="overflow:visible"><path id="path1200-1-0" d="M 8.7185878,4.0337352 -2.2072895,0.01601326 8.7185884,-4.0017078 c -1.7454984,2.3720609 -1.7354408,5.6174519 -6e-7,8.035443 z" transform="scale(-0.6)" style="fill:green;fill-opacity:1;fill-rule:evenodd;stroke:green;stroke-width:.625;stroke-linejoin:round;stroke-opacity:1"/></marker><marker id="Arrow2Mend-8-3-2-8" orient="auto" refX="0" refY="0" style="overflow:visible"><path id="path1200-9-6-9-6" d="M 8.7185878,4.0337352 -2.2072895,0.01601326 8.7185884,-4.0017078 c -1.7454984,2.3720609 -1.7354408,5.6174519 -6e-7,8.035443 z" transform="scale(-0.6)" style="fill:red;fill-opacity:1;fill-rule:evenodd;stroke:red;stroke-width:.625;stroke-linejoin:round;stroke-opacity:1"/></marker><marker id="Arrow2Mend-3" orient="auto" refX="0" refY="0" style="overflow:visible"><path id="path1200-6" d="M 8.7185878,4.0337352 -2.2072895,0.01601326 8.7185884,-4.0017078 c -1.7454984,2.3720609 -1.7354408,5.6174519 -6e-7,8.035443 z" transform="scale(-0.6)" style="fill:red;fill-opacity:1;fill-rule:evenodd;stroke:red;stroke-width:.625;stroke-linejoin:round;stroke-opacity:1"/></marker><marker id="marker8858-3" orient="auto" refX="0" refY="0" style="overflow:visible"><path id="path8616-5" d="M 8.7185878,4.0337352 -2.2072895,0.01601326 8.7185884,-4.0017078 c -1.7454984,2.3720609 -1.7354408,5.6174519 -6e-7,8.035443 z" transform="scale(-0.6)" style="fill:#0fc;fill-opacity:1;fill-rule:evenodd;stroke:#0fc;stroke-width:.625;stroke-linejoin:round;stroke-opacity:1"/></marker><marker id="Arrow2Mend-8-3-3" orient="auto" refX="0" refY="0" style="overflow:visible"><path id="path1200-9-6-56" d="M 8.7185878,4.0337352 -2.2072895,0.01601326 8.7185884,-4.0017078 c -1.7454984,2.3720609 -1.7354408,5.6174519 -6e-7,8.035443 z" transform="scale(-0.6)" style="fill:red;fill-opacity:1;fill-rule:evenodd;stroke:red;stroke-width:.625;stroke-linejoin:round;stroke-opacity:1"/></marker><marker id="Arrow2Mend-8-0-2" orient="auto" refX="0" refY="0" style="overflow:visible"><path id="path1200-9-3-9" d="M 8.7185878,4.0337352 -2.2072895,0.01601326 8.7185884,-4.0017078 c -1.7454984,2.3720609 -1.7354408,5.6174519 -6e-7,8.035443 z" transform="scale(-0.6)" style="fill:green;fill-opacity:1;fill-rule:evenodd;stroke:green;stroke-width:.625;stroke-linejoin:round;stroke-opacity:1"/></marker></defs><metadata id="metadata5"/><g id="layer1" transform="translate(399.57097,11.171866)"><path style="fill:green;stroke:green;stroke-width:.463298;stroke-linecap:butt;stroke-linejoin:miter;stroke-miterlimit:4;stroke-dasharray:.463298,.926596;stroke-dashoffset:0;stroke-opacity:1" id="path1171-0-7" d="m -120.41395,84.001461 h -9.04766"/><path style="fill:none;stroke:red;stroke-width:.982225;stroke-linecap:butt;stroke-linejoin:miter;stroke-miterlimit:4;stroke-dasharray:.982225,1.96445;stroke-dashoffset:0;stroke-opacity:1" id="path1171-7-1-3-8" d="m -129.96274,90.649221 h 8.66407"/><path style="fill:none;stroke:#3771c8;stroke-width:.745037;stroke-linecap:butt;stroke-linejoin:miter;stroke-miterlimit:4;stroke-dasharray:none;stroke-dashoffset:0;stroke-opacity:1" id="path7149-3-7-8" d="m -121.33167,97.283841 h -7.91265"/><text style="font-style:normal;font-weight:400;font-size:6.54816px;line-height:1.25;font-family:sans-serif;letter-spacing:0;word-spacing:0;fill:#000;fill-opacity:1;stroke:none;stroke-width:.163704" id="text12079" x="-115.557" y="85.331" xml:space="preserve"><tspan id="tspan12077" x="-115.557" y="85.331" style="font-size:4.80199px;stroke-width:.163704">Board/Platform</tspan></text><text style="font-style:normal;font-weight:400;font-size:6.54816px;line-height:1.25;font-family:sans-serif;letter-spacing:0;word-spacing:0;fill:#000;fill-opacity:1;stroke:none;stroke-width:.163704" id="text12079-3" x="-115.759" y="92.435" xml:space="preserve"><tspan id="tspan12077-1" x="-115.759" y="92.435" style="font-size:4.80199px;stroke-width:.163704">SoC</tspan></text><text style="font-style:normal;font-weight:400;font-size:6.54816px;line-height:1.25;font-family:sans-serif;letter-spacing:0;word-spacing:0;fill:#000;fill-opacity:1;stroke:none;stroke-width:.163704" id="text12079-3-4" x="-115.604" y="98.609" xml:space="preserve"><tspan id="tspan12077-1-9" x="-115.604" y="98.609" style="font-size:4.80199px;stroke-width:.163704">Component</tspan></text><text style="font-style:normal;font-weight:400;font-size:3.175px;line-height:1.25;font-family:sans-serif;letter-spacing:0;word-spacing:0;fill:#000;fill-opacity:1;stroke:none;stroke-width:.264583" id="text1010-5" x="-368.542" y="92.633" xml:space="preserve"><tspan style="font-size:6.35px;text-align:center;text-anchor:middle;stroke-width:.264583" id="tspan1057" x="-368.542" y="92.633">DRAM</tspan></text><g id="g730" transform="translate(6.9386906,-2.5203356)"><text id="text838-5-2-6-2" x="-372.979" y="32.372" xml:space="preserve" style="font-style:normal;font-weight:400;font-size:6.54814px;line-height:1.25;font-family:sans-serif;letter-spacing:0;word-spacing:0;fill:#000;fill-opacity:1;stroke:none;stroke-width:.163704"><tspan id="tspan936-1-2-3" x="-372.979" y="32.372" style="text-align:center;text-anchor:middle;stroke-width:.163704">dc_plane</tspan></text><rect id="rect834-5-2-6-75" width="35.08" height="23.905" x="-390.506" y="18.717" ry="0" style="fill:none;stroke:#000;stroke-width:.561714;stroke-linecap:round;stroke-linejoin:bevel;stroke-miterlimit:4;stroke-dasharray:none"/></g><g id="g738" transform="translate(6.9386906,31.346346)"><text id="text734" x="-372.979" y="32.372" xml:space="preserve" style="font-style:normal;font-weight:400;font-size:6.54814px;line-height:1.25;font-family:sans-serif;letter-spacing:0;word-spacing:0;fill:#000;fill-opacity:1;stroke:none;stroke-width:.163704"><tspan id="tspan732" x="-372.979" y="32.372" style="text-align:center;text-anchor:middle;stroke-width:.163704">dc_plane</tspan></text><rect id="rect736" width="35.08" height="23.905" x="-390.506" y="18.717" ry="0" style="fill:none;stroke:#000;stroke-width:.561714;stroke-linecap:round;stroke-linejoin:bevel;stroke-miterlimit:4;stroke-dasharray:none"/></g><rect id="rect744" width="46.307" height="73.492" x="-389.181" y="8.598" ry="0" style="fill:none;stroke:#3771c8;stroke-width:1.13159;stroke-linecap:round;stroke-linejoin:bevel;stroke-miterlimit:4;stroke-dasharray:none"/><g id="g757" transform="translate(-19.949528,-8.6078171)"><text id="text600" x="-256.913" y="56.29" xml:space="preserve" style="font-style:normal;font-weight:400;font-size:6.54814px;line-height:1.25;font-family:sans-serif;letter-spacing:0;word-spacing:0;fill:#000;fill-opacity:1;stroke:none;stroke-width:.163704"><tspan id="tspan598" x="-256.913" y="56.29" style="text-align:center;text-anchor:middle;stroke-width:.163704">DC</tspan></text><rect id="rect602" width="65.043" height="60.362" x="-289.219" y="23.771" ry="0" style="fill:none;stroke:#000;stroke-width:1.21541;stroke-linecap:round;stroke-linejoin:bevel;stroke-miterlimit:4;stroke-dasharray:none"/></g><rect id="rect787" width="79.572" height="81.711" x="-316.433" y="4.489" ry="0" style="fill:none;stroke:#3771c8;stroke-width:1.5641;stroke-linecap:round;stroke-linejoin:bevel;stroke-miterlimit:4;stroke-dasharray:none"/><g id="g765" transform="translate(6.5577393,-7.020317)"><text id="text608" x="-189.718" y="31.943" xml:space="preserve" style="font-style:normal;font-weight:400;font-size:6.54814px;line-height:1.25;font-family:sans-serif;letter-spacing:0;word-spacing:0;fill:#000;fill-opacity:1;stroke:none;stroke-width:.163704"><tspan id="tspan606" x="-189.718" y="31.943" style="text-align:center;text-anchor:middle;stroke-width:.163704">dc_link</tspan></text><rect id="rect610" width="44.847" height="23.523" x="-211.991" y="18.197" ry="0" style="fill:none;stroke:#000;stroke-width:.630025;stroke-linecap:round;stroke-linejoin:bevel;stroke-miterlimit:4;stroke-dasharray:none"/></g><rect id="rect794" width="55.544" height="36.588" x="-210.691" y="4.316" ry="0" style="fill:none;stroke:#3771c8;stroke-width:.874443;stroke-linecap:round;stroke-linejoin:bevel;stroke-miterlimit:4;stroke-dasharray:none"/><g id="g781" transform="translate(6.5577393,37.542802)"><text id="text777" x="-189.718" y="31.943" xml:space="preserve" style="font-style:normal;font-weight:400;font-size:6.54814px;line-height:1.25;font-family:sans-serif;letter-spacing:0;word-spacing:0;fill:#000;fill-opacity:1;stroke:none;stroke-width:.163704"><tspan id="tspan775" x="-189.718" y="31.943" style="text-align:center;text-anchor:middle;stroke-width:.163704">dc_link</tspan></text><rect id="rect779" width="44.847" height="23.523" x="-211.991" y="18.197" ry="0" style="fill:none;stroke:#000;stroke-width:.630025;stroke-linecap:round;stroke-linejoin:bevel;stroke-miterlimit:4;stroke-dasharray:none"/></g><rect id="rect796" width="55.544" height="36.588" x="-210.691" y="50.467" ry="0" style="fill:none;stroke:#3771c8;stroke-width:.874443;stroke-linecap:round;stroke-linejoin:bevel;stroke-miterlimit:4;stroke-dasharray:none"/><g id="g2151" transform="translate(2.1659807,-25.895798)"><rect id="rect618" width="44.742" height="32.041" x="-132.258" y="29.395" ry="0" style="fill:none;stroke:#3771c8;stroke-width:.734435;stroke-linecap:round;stroke-linejoin:bevel;stroke-miterlimit:4;stroke-dasharray:none"/><g id="g838" transform="translate(1.9073486e-6,0.26687336)"><text id="text616" x="-110.037" y="47.133" xml:space="preserve" style="font-style:normal;font-weight:400;font-size:6.54814px;line-height:1.25;font-family:sans-serif;letter-spacing:0;word-spacing:0;fill:#000;fill-opacity:1;stroke:none;stroke-width:.163704"><tspan id="tspan614" x="-110.037" y="47.133" style="text-align:center;text-anchor:middle;stroke-width:.163704">dc_link</tspan></text><rect id="rect833" width="32.662" height="19.798" x="-126.218" y="35.25" ry="0" style="fill:none;stroke:#000;stroke-width:.493257;stroke-linecap:round;stroke-linejoin:bevel;stroke-miterlimit:4;stroke-dasharray:none"/></g></g><rect id="rect1307" width="250.942" height="124.733" x="-397.855" y="-9.456" ry="0" style="fill:none;stroke:green;stroke-width:3.43179;stroke-linecap:butt;stroke-linejoin:miter;stroke-miterlimit:4;stroke-dasharray:6.86358,3.43179;stroke-dashoffset:0"/><rect id="rect1990" width="174.141" height="100.862" x="-393.523" y="-4.54" ry="0" style="fill:none;stroke:red;stroke-width:2.57074;stroke-linecap:round;stroke-linejoin:bevel;stroke-miterlimit:4;stroke-dasharray:2.57074,5.14148;stroke-dashoffset:0"/><path style="fill:none;stroke:#aa00d4;stroke-width:2;stroke-linecap:butt;stroke-linejoin:miter;stroke-dasharray:none;stroke-opacity:1" id="path2142" d="m -317.69814,47.452094 h -23.80954"/><path style="fill:none;stroke:#aa00d4;stroke-width:2;stroke-linecap:butt;stroke-linejoin:miter;stroke-dasharray:none;stroke-opacity:1" id="path2144" d="m -130.71642,19.101665 h -23.80954"/><g style="font-style:normal;font-weight:400;font-size:3.175px;line-height:1.25;font-family:sans-serif;letter-spacing:0;word-spacing:0;fill:#aa00d4;fill-opacity:1;stroke:none;stroke-width:.264583" id="text1003-5" aria-label="}" transform="rotate(180,-59.876965,-0.22738225)"><path style="font-size:25.4px;fill:#aa00d4;stroke-width:.264583" id="path1005-3" d="m 92.00239,-21.748413 h 0.86816 c 0,0 15.81267,-0.177767 16.15994,-0.5333 0.35553,-0.355534 1.10026,-1.124479 1.10026,-2.306836 v -20.048953 c 0,-1.289844 0.18603,-2.228288 0.5581,-2.815332 0.37207,-0.587044 0.45004,-0.992187 1.36781,-1.215429 -0.91777,-0.206706 -0.99574,-0.603581 -1.36781,-1.190625 -0.37207,-0.587045 -0.5581,-1.529623 -0.5581,-2.827735 v -19.913761 c 0,-1.174088 -0.74473,-1.938899 -1.10026,-2.294433 -0.34727,-0.363802 -15.00239,-0.545703 -16.15994,-0.545703 h -0.86816 v -1.773536 h 0.78134 c 2.05879,0 17.33403,0.305924 18.02029,0.917774 0.69453,0.60358 1.0418,1.81901 1.0418,3.646289 v 19.814542 c 0,1.231966 0.22324,2.087728 0.66973,2.567285 0.44648,0.471289 1.25677,0.706934 2.43086,0.706934 h 0.76894 v 1.773535 h -0.76894 c -1.17409,0 -1.98438,0.239778 -2.43086,0.719336 -0.44649,0.479557 -0.66973,1.343587 -0.66973,2.59209 v 19.937331 c 0,1.827279 -0.34727,3.046842 -1.0418,3.658691 -0.68626,0.611849 -15.9615,0.917774 -18.02029,0.917774 h -0.78134 z"/></g><text style="font-style:normal;font-weight:400;font-size:3.175px;line-height:1.25;font-family:sans-serif;letter-spacing:0;word-spacing:0;fill:#000;fill-opacity:1;stroke:none;stroke-width:.264583" id="text2157" x="-275.858" y="92.633" xml:space="preserve"><tspan style="font-size:6.35px;text-align:center;text-anchor:middle;stroke-width:.264583" id="tspan2155" x="-275.858" y="92.633">DCN</tspan></text><text style="font-style:normal;font-weight:400;font-size:3.175px;line-height:1.25;font-family:sans-serif;letter-spacing:0;word-spacing:0;fill:#000;fill-opacity:1;stroke:none;stroke-width:.264583" id="text3141" x="-279.298" y="110.199" xml:space="preserve"><tspan style="font-weight:700;font-size:6.35px;text-align:center;text-anchor:middle;stroke-width:.264583" id="tspan3139" x="-279.298" y="110.199">SoC</tspan></text><text style="font-style:normal;font-weight:400;font-size:3.175px;line-height:1.25;font-family:sans-serif;letter-spacing:0;word-spacing:0;fill:#000;fill-opacity:1;stroke:none;stroke-width:.264583" id="text3375" x="-275.858" y="123.854" xml:space="preserve"><tspan style="font-size:6.35px;text-align:center;text-anchor:middle;stroke-width:.264583" id="tspan3373" x="-275.858" y="123.854">Board/Platform</tspan></text><text style="font-style:normal;font-weight:400;font-size:3.175px;line-height:1.25;font-family:sans-serif;letter-spacing:0;word-spacing:0;fill:#000;fill-opacity:1;stroke:none;stroke-width:.264583" id="text3379" x="-107.575" y="42.94" xml:space="preserve"><tspan style="font-size:6.35px;text-align:center;text-anchor:middle;stroke-width:.264583" id="tspan3377" x="-107.575" y="42.94">Display</tspan></text><text style="font-style:normal;font-weight:400;font-size:3.175px;line-height:1.25;font-family:sans-serif;letter-spacing:0;word-spacing:0;fill:#000;fill-opacity:1;stroke:none;stroke-width:.264583" id="text3383" x="-182.716" y="46.644" xml:space="preserve"><tspan style="font-size:6.35px;text-align:center;text-anchor:middle;stroke-width:.264583" id="tspan3381" x="-182.716" y="46.644">Connector</tspan></text><text style="font-style:normal;font-weight:400;font-size:3.175px;line-height:1.25;font-family:sans-serif;letter-spacing:0;word-spacing:0;fill:#000;fill-opacity:1;stroke:none;stroke-width:.264583" id="text3387" x="-182.716" y="93.21" xml:space="preserve"><tspan style="font-size:6.35px;text-align:center;text-anchor:middle;stroke-width:.264583" id="tspan3385" x="-182.716" y="93.21">Connector</tspan></text></g></svg>